<?xml version="1.0" encoding="utf-8"?>
<!-- Generator: Adobe Illustrator 16.0.0, SVG Export Plug-In . SVG Version: 6.00 Build 0)  -->
<!DOCTYPE svg PUBLIC "-//W3C//DTD SVG 1.1//EN" "http://www.w3.org/Graphics/SVG/1.1/DTD/svg11.dtd">
<svg version="1.1" id="Layer_1" xmlns="http://www.w3.org/2000/svg" xmlns:xlink="http://www.w3.org/1999/xlink" x="0px" y="0px"
	 width="32px" height="32px" viewBox="0 0 32 32" enable-background="new 0 0 32 32" xml:space="preserve">
<g>
	<path d="M2.752,15.75c-0.915,0-1.656,0.742-1.656,1.656v10.386c0,0.253,0.205,0.458,0.458,0.458h3v-12.5H2.752z"/>
	<path d="M29.44,15.75h-1.802v12.5h3c0.253,0,0.458-0.205,0.458-0.458V17.406C31.096,16.492,30.354,15.75,29.44,15.75z"/>
	<path d="M25.951,5.917h-1.709c-0.379,0-0.687,0.308-0.687,0.688v2.63h-2.917v-2.63c0-0.38-0.308-0.688-0.687-0.688h-1.709
		c-0.379,0-0.687,0.308-0.687,0.688v2.63h-2.917v-2.63c0-0.38-0.308-0.688-0.687-0.688h-1.709c-0.379,0-0.687,0.308-0.687,0.688
		v2.63H8.638v-2.63c0-0.38-0.308-0.688-0.687-0.688H6.242c-0.379,0-0.687,0.308-0.687,0.688V28.25h7.104v-3.396
		c0-1.898,1.539-3.437,3.437-3.437s3.437,1.539,3.437,3.437v3.396h7.104V6.604C26.638,6.225,26.33,5.917,25.951,5.917z
		 M12.645,16.893c0,0.152-0.123,0.274-0.274,0.274H8.822c-0.151,0-0.274-0.123-0.274-0.274v-1.594c0-1.131,0.917-2.048,2.048-2.048
		s2.048,0.917,2.048,2.048V16.893z M23.645,16.893c0,0.152-0.123,0.274-0.274,0.274h-3.549c-0.151,0-0.274-0.123-0.274-0.274v-1.594
		c0-1.131,0.917-2.048,2.048-2.048s2.048,0.917,2.048,2.048V16.893z"/>
</g>
</svg>
