<?xml version="1.0" encoding="utf-8"?>
<!-- Generator: Adobe Illustrator 16.0.0, SVG Export Plug-In . SVG Version: 6.00 Build 0)  -->
<!DOCTYPE svg PUBLIC "-//W3C//DTD SVG 1.1//EN" "http://www.w3.org/Graphics/SVG/1.1/DTD/svg11.dtd">
<svg version="1.1" id="Layer_1" xmlns="http://www.w3.org/2000/svg" xmlns:xlink="http://www.w3.org/1999/xlink" x="0px" y="0px"
	 width="50px" height="50px" viewBox="0 0 50 50" enable-background="new 0 0 50 50" xml:space="preserve">
<path d="M33.894,22.343v1.25h1.833v-1.25h2.334v1.25h1.833v-1.172h2.334v1.172v2.328v0.006H31.56v-0.084v-2.25v-1.25H33.894z
	 M18.44,25.921v-2.328v-1.172h-2.334v1.172h-1.833v-1.25h-2.334v1.25h-1.833v-1.25H7.772v1.25v2.25v0.084H18.44V25.921z
	 M41.445,26.759v13.828c-1.18-0.663-2.479-1.029-3.836-1.029c-0.197,0-0.398,0.01-0.611,0.029c-0.908-0.92-2.051-1.42-3.268-1.42
	c-0.322,0-0.648,0.043-0.989,0.131c-2.212-1.755-4.937-2.715-7.737-2.715c-2.049,0-4.061,0.514-5.873,1.491
	c-0.934-1.072-2.19-1.69-3.5-1.69c-2.298,0-4.242,1.789-4.839,4.35c-0.779,0.168-1.528,0.466-2.237,0.864V30.509v-3.75h9.141v3.75
	h2.734V17.947H17.5l7.1-7.101V5.468h0.8v0.301c2.197,3.945,4.393-2.813,6.59,1.665c-2.197-3.199-4.394,4.839-6.59,2.173v1.24
	l7.1,7.101h-2.93v12.562h2.734v-3.75H41.445z M27.012,21.194c0-1.111-0.9-2.012-2.012-2.012s-2.012,0.9-2.012,2.012v3.953h4.023
	V21.194z M37.609,40.558c-0.342,0-0.678,0.035-1.008,0.086c-0.732-0.912-1.747-1.477-2.871-1.477c-0.423,0-0.823,0.102-1.206,0.25
	c-2.028-1.764-4.651-2.834-7.521-2.834c-2.259,0-4.36,0.67-6.145,1.811c-0.737-1.213-1.903-2.01-3.229-2.01
	c-2.023,0-3.685,1.834-3.979,4.221c-2.335,0.264-4.379,1.748-5.713,3.928h38.125C42.588,42.123,40.25,40.558,37.609,40.558z"/>
</svg>
