<?xml version="1.0" encoding="utf-8"?>
<!-- Generator: Adobe Illustrator 16.0.0, SVG Export Plug-In . SVG Version: 6.00 Build 0)  -->
<!DOCTYPE svg PUBLIC "-//W3C//DTD SVG 1.1//EN" "http://www.w3.org/Graphics/SVG/1.1/DTD/svg11.dtd">
<svg version="1.1" id="Layer_1" xmlns="http://www.w3.org/2000/svg" xmlns:xlink="http://www.w3.org/1999/xlink" x="0px" y="0px"
	 width="48px" height="48px" viewBox="0 0 48 48" enable-background="new 0 0 48 48" xml:space="preserve">
<g>
	<path d="M34.757,31.803h-2.614c-0.818-2.922-3.489-5.041-6.657-5.041c-1.089,0-2.12,0.25-3.036,0.698
		c-0.609-4.01-4.073-7.085-8.254-7.085c-4.611,0-8.349,3.743-8.349,8.354c0,1.084,0.207,2.112,0.582,3.075H6.051
		c-2.804,0-5.092,2.262-5.092,5.066v0.756c0,2.609,2.131,4.73,4.739,4.73h29.185c2.846,0,5.158-2.312,5.158-5.158v-0.126
		C40.041,34.156,37.672,31.803,34.757,31.803z"/>
	<path d="M43.715,12.865h-1.651c-0.518-1.846-2.205-3.185-4.207-3.185c-0.688,0-1.34,0.158-1.918,0.441
		c-0.385-2.534-2.574-4.477-5.215-4.477c-2.913,0-5.274,2.365-5.274,5.278c0,0.685,0.131,1.334,0.368,1.942h-0.239
		c-1.771,0-3.217,1.429-3.217,3.201v0.478c0,1.649,1.346,2.988,2.994,2.988h18.438c1.799,0,3.259-1.461,3.259-3.258v-0.08
		C47.053,14.352,45.556,12.865,43.715,12.865z"/>
</g>
</svg>
