<?xml version="1.0" encoding="utf-8"?>
<!-- Generator: Adobe Illustrator 17.1.0, SVG Export Plug-In . SVG Version: 6.00 Build 0)  -->
<!DOCTYPE svg PUBLIC "-//W3C//DTD SVG 1.1//EN" "http://www.w3.org/Graphics/SVG/1.1/DTD/svg11.dtd">
<svg version="1.1" id="Layer_1" xmlns="http://www.w3.org/2000/svg" xmlns:xlink="http://www.w3.org/1999/xlink" x="0px" y="0px"
	 width="1000px" height="1000px" viewBox="0 0 1000 1000" enable-background="new 0 0 1000 1000" xml:space="preserve">
<path d="M55.411,928.935h871.537c14.946,0,24.611-15.797,17.807-29.105L809.004,634.317c-6.471-12.657-23.711-14.712-32.976-3.931
	L662.64,762.328L402.348,340.275c-7.899-12.809-26.583-12.633-34.24,0.322L38.194,898.759
	C30.314,912.091,39.924,928.935,55.411,928.935z"/>
<path d="M889.77,279.725c-1.763,0-3.51,0.07-5.247,0.174c-4.574-58.989-53.887-105.431-114.05-105.431
	c-60.162,0-109.476,46.442-114.05,105.431c-1.737-0.104-3.483-0.174-5.246-0.174c-47.532,0-86.064,38.533-86.064,86.064
	c0,47.532,38.532,86.064,86.064,86.064H889.77c47.531,0,86.064-38.532,86.064-86.064
	C975.834,318.257,937.302,279.725,889.77,279.725z"/>
</svg>
